# xmcd
#
# Track frame offsets:
# 150
# 13207
# 27307
# 39350
# 50640
# 64315
# 77880
# 89257
# 100357
# 114010
# 127220
# 142967
# 159184
# 172737
#
# Disc length: 2496 seconds
#
#
# Revision: 2
# Processed by: cddbd v1.5.1PL2 Copyright (c) Steve Scherf et al.
# Submitted via: FreeRIP 2.943 
#
DISCID=b109be0e
DTITLE=Teodoro and Sampaio - A gostosona
DYEAR=1900
DGENRE=
TTITLE0=Se a casa cair
TTITLE1=A gostosona
TTITLE2=De parede é minha
TTITLE3=Lobisomem apaixonado
TTITLE4=O bicho que chora
TTITLE5=O peão e o violeiro
TTITLE6=Amigos de bar
TTITLE7=Onde anda meu amor
TTITLE8=Paixão violenta
TTITLE9=Chora comigo
TTITLE10=Paixão mineira
TTITLE11=A canção que lembra você
TTITLE12=Machucado de paixão
TTITLE13=Não fale nessa mulher
EXTD=
EXTT0=
EXTT1=
EXTT2=
EXTT3=
EXTT4=
EXTT5=
EXTT6=
EXTT7=
EXTT8=
EXTT9=
EXTT10=
EXTT11=
EXTT12=
EXTT13=
PLAYORDER=
